<?xml version="1.0" encoding="utf-8"?>
<svg version="1.0" xmlns="http://www.w3.org/2000/svg" width="1024.000000pt" height="1024.000000pt" viewBox="0 0 1024.000000 1024.000000" preserveAspectRatio="xMidYMid meet" xmlns:bx="https://boxy-svg.com"><defs><bx:export><bx:file format="svg" units="pt"/><bx:file format="png"/></bx:export></defs><g transform="translate(0.000000,1024.000000) scale(0.100000,-0.100000)" fill="#000000" stroke="none"><path d="M1011 7218 c-382 -371 -661 -654 -661 -673 0 -21 517 -547 562 -571 23 -12 244 -14 1503 -14 l1476 0 24 -25 c30 -29 32 -64 6 -96 l-19 -24 -944 -5 -943 -5 -67 -26 c-249 -97 -422 -306 -473 -573 -13 -65 -15 -209 -15 -865 0 -599 3 -790 12 -799 9 -9 157 -12 604 -12 525 0 594 2 608 16 14 14 16 80 16 575 l0 559 26 10 c15 6 237 10 562 10 l536 0 330 328 c182 181 476 472 654 647 281 278 322 322 322 349 0 33 64 -33 -816 839 l-501 497 -1328 0 -1327 0 -147 -142z" style="fill: rgb(0, 83, 62);"/><path d="M5786 6032 c-11 -18 -96 -414 -91 -423 4 -5 98 -9 216 -9 208 0 210 0 219 23 17 38 91 390 86 404 -4 10 -50 13 -215 13 -115 0 -212 -4 -215 -8z" style="fill: rgb(0, 83, 62);"/><path d="M7105 5404 c-118 -19 -263 -88 -354 -170 -33 -31 -61 -52 -61 -47 0 4 7 33 15 63 19 71 19 106 -1 114 -9 3 -103 6 -210 6 -229 0 -209 13 -247 -155 -136 -591 -369 -1657 -364 -1669 6 -14 33 -16 205 -16 158 0 202 3 211 14 6 8 79 299 162 646 82 348 157 648 165 666 24 50 90 121 141 151 58 34 164 43 211 19 44 -23 66 -68 59 -125 -5 -39 -106 -494 -263 -1183 -20 -87 -34 -164 -31 -173 6 -13 36 -15 212 -15 204 0 206 0 215 23 19 43 125 489 255 1067 25 113 55 224 66 247 25 52 90 118 143 145 57 29 162 36 209 13 37 -17 67 -65 67 -107 0 -24 -65 -318 -215 -975 -48 -210 -85 -389 -82 -398 6 -13 36 -15 205 -15 148 0 202 3 210 13 13 16 150 578 262 1073 100 445 106 500 69 599 -27 72 -92 137 -167 166 -85 33 -238 32 -344 -3 -103 -34 -195 -87 -267 -153 -32 -30 -61 -55 -65 -55 -3 0 -6 10 -6 22 0 36 -40 106 -78 138 -21 17 -61 40 -91 51 -54 20 -177 32 -236 23z" style="fill: rgb(0, 83, 62);"/><path d="M9090 5404 c-225 -43 -380 -144 -479 -312 -47 -78 -101 -220 -101 -264 l0 -28 194 0 c212 0 205 -2 226 65 36 112 109 200 188 223 57 17 141 15 182 -6 52 -25 73 -73 65 -148 -7 -83 -32 -164 -58 -192 -36 -39 -109 -70 -265 -113 -366 -100 -519 -178 -633 -321 -134 -168 -190 -469 -116 -620 114 -232 472 -265 733 -68 28 21 58 45 67 54 8 9 17 16 19 16 2 0 3 -35 3 -77 l0 -78 200 0 200 0 7 95 c4 61 28 188 68 355 85 360 196 848 210 921 19 95 10 219 -20 279 -46 95 -140 164 -275 201 -59 16 -356 29 -415 18z m131 -1158 c-59 -235 -104 -317 -210 -385 -137 -88 -272 -51 -296 80 -9 49 11 143 43 202 56 104 157 168 366 231 66 20 122 39 125 42 15 15 8 -26 -28 -170z" style="fill: rgb(0, 83, 62);"/><path d="M5342 5374 c-95 -25 -194 -97 -275 -199 -31 -39 -39 -44 -34 -25 34 149 40 190 27 205 -19 23 -401 23 -424 -1 -9 -8 -16 -17 -16 -20 0 -6 -170 -782 -290 -1324 -55 -250 -98 -460 -96 -467 7 -17 421 -19 431 -3 4 6 60 241 125 524 66 282 128 537 140 566 45 114 125 206 224 257 54 27 159 53 222 53 23 0 46 6 51 13 15 18 105 415 98 427 -9 14 -121 11 -183 -6z" style="fill: rgb(0, 83, 62);"/><path d="M5642 5358 c-15 -20 -406 -1792 -399 -1811 6 -15 29 -17 210 -17 152 0 207 3 214 13 16 19 407 1792 400 1810 -6 15 -29 17 -210 17 -152 0 -207 -3 -215 -12z" style="fill: rgb(0, 83, 62);"/></g></svg>